<svg id="Layer_1" data-name="Layer 1" xmlns="http://www.w3.org/2000/svg" viewBox="0 0 5120 1956"><defs><style>.cls-1{fill:#0063ff;}.cls-2{fill:#72e9e4;}.cls-3{fill:#fff;}.cls-4{fill:#fd0;}.cls-5{fill:#ff370d;}.cls-6{fill:#001cb2;}.cls-7{fill:#d9d9d9;}</style></defs><title>Illustrations</title><rect class="cls-1" width="5120" height="1956"/><path class="cls-2" d="M1899.5,1082.33V760.81h135c101.23,0,174,60.73,174,160.52s-72.78,161-173.53,161Zm224.14-161c0-49.65-29.88-88.22-88.69-88.22h-52.54V1010h52.06C2090.87,1010,2123.64,969.05,2123.64,921.33Z"/><rect class="cls-3" x="1900.21" y="761.32" width="82.2" height="321"/><path class="cls-2" d="M3686.9,1082.33V952.66l-122-191.85h93.52l69.89,118.58,68.94-118.58h94L3769.81,952.66v129.67Z"/><path class="cls-3" d="M3686.9,1082.33V952.66l41.45-73.27,68.94-118.58h94L3769.81,952.66v129.67Z"/><path class="cls-2" d="M2752.71,1082.33,2616.77,896.26v186.07h-82.91V760.81h85.32l130.15,176.91V760.81h83.39v321.52Z"/><rect class="cls-3" x="2749.27" y="761.32" width="83.45" height="321"/><rect class="cls-3" x="2749.27" y="761.32" width="83.45" height="321"/><rect class="cls-3" x="2532.59" y="761.32" width="83.45" height="321"/><path class="cls-2" d="M3174.49,1082.33V760.81h82.91v321.52Z"/><path class="cls-3" d="M3174.49,1082.33l82.91-321.52v321.52Z"/><path class="cls-2" d="M905.08,1301.54V1031c0-111.35,196.9-138.85,240.55-3.73l23.19,53.82-41.67,1.56s3.29,69,3.29,80c0,45-47.52,19.57-47.52,38.47,0,26.23.22,123.49.22,123.49s-54.33,8.75-88.39,5.54C936,1324.64,905.08,1301.54,905.08,1301.54Z"/><polygon class="cls-2" points="3576.39 1413.84 3641.89 1411.71 3791.58 1563.65 3758.76 1598.07 3576.39 1413.84"/><polygon class="cls-3" points="3702.86 1413.47 3768.36 1411.35 3854.82 1496.41 3822 1530.83 3702.86 1413.47"/><polygon class="cls-2" points="3836.41 1413.16 3884.38 1397.61 3920.86 1432.69 3888.04 1467.12 3836.41 1413.16"/><rect class="cls-2" x="1294.4" y="1231.43" width="37.16" height="384.95"/><rect class="cls-2" x="1373.55" y="1231.43" width="37.16" height="384.95"/><polygon class="cls-3" points="1348.46 1129.05 1396.89 1129.05 1373.34 1081.87 1348.46 1129.05"/><polygon class="cls-2" points="1296.44 1231.43 1348.46 1129.05 1396.89 1129.05 1451.63 1231.43 1296.44 1231.43"/><polyline class="cls-2" points="2003.56 1274.81 2003.56 1211.28 1703.35 1211.28 1703.35 1646.84 2003.56 1646.84 2003.56 1581.34"/><path class="cls-4" d="M2749.11,538.33H2594.62a152.86,152.86,0,0,0,152.8,149.33c.57,0,1.13,0,1.69,0Z"/><path class="cls-2" d="M2749.11,538.33H2594.62a152.86,152.86,0,0,0,152.8,149.33c.57,0,1.13,0,1.69,0Z"/><polygon class="cls-3" points="3221.72 541.73 3088.5 618.55 3222.23 695.76 3221.72 541.73"/><polygon class="cls-2" points="3221.72 541.73 3357.9 463.17 3356.15 618.55 3221.72 541.73"/><polygon class="cls-2" points="3087.61 463.17 3087.61 540.86 3221.72 541.73 3087.61 463.17"/><rect class="cls-4" x="3958.48" y="786.04" width="25.96" height="218.75"/><rect class="cls-2" x="3958.48" y="786.04" width="25.96" height="218.75"/><rect class="cls-2" x="4331.35" y="786.04" width="25.96" height="218.75"/><polygon class="cls-2" points="3456.74 1527.02 3236.92 1527.02 3456.74 1296.97 3456.74 1527.02"/><path class="cls-5" d="M3248.17,1220.5h195a33.44,33.44,0,0,1,33.44,33.44v14.87a0,0,0,0,1,0,0H3216.64a0,0,0,0,1,0,0V1252A31.53,31.53,0,0,1,3248.17,1220.5Z"/><path class="cls-2" d="M3215.55,1222.92h262.11a0,0,0,0,1,0,0v13.16a32.73,32.73,0,0,1-32.73,32.73H3246.4a30.86,30.86,0,0,1-30.86-30.86v-15A0,0,0,0,1,3215.55,1222.92Z" transform="translate(6693.2 2491.72) rotate(-180)"/><path class="cls-2" d="M3247,1551.76h197.26a33.38,33.38,0,0,1,33.38,33.38v14.36a0,0,0,0,1,0,0H3215.55a0,0,0,0,1,0,0v-16.27A31.47,31.47,0,0,1,3247,1551.76Z" transform="translate(6693.2 3151.25) rotate(180)"/><path class="cls-6" d="M2549.25,1568.24V1246.72h82.92v321.52Z"/><path class="cls-6" d="M2690,1568.24V1246.72h135c101.23,0,174,60.73,174,160.51s-72.79,161-173.54,161Zm224.15-161c0-49.65-29.89-88.21-88.7-88.21h-52.54v176.91H2825C2881.38,1495.93,2914.16,1455,2914.16,1407.23Z"/><path class="cls-6" d="M1845.15,1085.83h-89.91V757.31h89.91Zm-82.91-7h75.91V764.31h-75.91Z"/><path class="cls-6" d="M2035,1085.83H1896V757.31h138.47c106.18,0,177.51,65.91,177.51,164C2212,1019.72,2140.84,1085.83,2035,1085.83Zm-132-7h132c101.7,0,170-63.3,170-157.5,0-47.2-16.55-87-47.88-115.08-30.61-27.44-73-41.94-122.63-41.94H1903Zm131.47-65.31h-55.56V829.61h56c56,0,92.19,36,92.19,91.72C2127.14,975.61,2089,1013.52,2034.47,1013.52Zm-48.56-7h48.56c58.86,0,85.67-44.16,85.67-85.19,0-52.25-32.64-84.72-85.19-84.72h-49Z"/><path class="cls-6" d="M2489.16,1085.83H2246.44V757.31h242.72v79.3H2336.35v43.14h149.43v79.3H2336.35v47.47h152.81Zm-235.72-7h228.72v-65.31H2329.35V952.05h149.43v-65.3H2329.35V829.61h152.81v-65.3H2253.44Z"/><path class="cls-6" d="M2836.22,1085.83h-85.29L2620.27,907v178.84h-89.91V757.31H2621l124.88,169.74V757.31h90.39Zm-81.74-7h74.74V764.31h-76.39V948.38L2617.41,764.31h-80v314.52h75.91V885.54Z"/><path class="cls-6" d="M3048.8,1085.83h-89.91V836.61h-90.14v-79.3h269.71v79.3H3048.8Zm-82.91-7h75.91V829.61h89.66v-65.3H2875.75v65.3h90.14Z"/><path class="cls-6" d="M3260.9,1085.83H3171V757.31h89.91Zm-82.91-7h75.91V764.31H3178Z"/><path class="cls-6" d="M3473.48,1085.83h-89.91V836.61h-90.14v-79.3h269.71v79.3h-89.66Zm-82.91-7h75.91V829.61h89.66v-65.3H3300.43v65.3h90.14Z"/><path class="cls-6" d="M3773.31,1085.83H3683.4V953.68L3558.57,757.31h101.89l67.87,115.15,66.94-115.15h102.37L3773.31,953.68Zm-82.91-7h75.91V951.65l118.62-187.34H3799.3l-70.93,122-71.91-122h-85.15L3690.4,951.64Z"/><path class="cls-6" d="M2433.8,1085.9H1257.09a3.5,3.5,0,1,1,0-7H2433.8a3.5,3.5,0,0,1,0,7Z"/><path class="cls-6" d="M4127.69,1085.83h-669a3.5,3.5,0,0,1,0-7h669a3.5,3.5,0,0,1,0,7Z"/><path class="cls-6" d="M3817.12,1415.21H3482.57a3.5,3.5,0,0,1,0-7h334.55c38.69,0,67.66-10.06,86.09-29.9,23.57-25.37,21.46-58.22,21.44-58.54l0-231.29a3.5,3.5,0,0,1,7,0v231c.1,1.21,2.34,36-23.29,63.56C3888.53,1404.4,3857.83,1415.21,3817.12,1415.21Z"/><path class="cls-6" d="M3210.63,1415.69H2940a3.5,3.5,0,0,1,0-7h270.66a3.5,3.5,0,0,1,0,7Z"/><path class="cls-6" d="M1698.26,1489.42H1451.63a3.5,3.5,0,0,1,0-7h246.63a3.5,3.5,0,1,1,0,7Z"/><polygon class="cls-6" points="1297.9 1616.38 1290.9 1616.38 1290.9 1230.66 1291.31 1229.89 1373.36 1074.34 1455.13 1230.66 1455.13 1485.92 1448.13 1485.92 1448.13 1232.39 1373.33 1089.4 1297.9 1232.39 1297.9 1616.38"/><rect class="cls-6" x="1294.4" y="1228.03" width="156.56" height="7"/><rect class="cls-6" x="1348.46" y="1126.81" width="48.44" height="7"/><rect class="cls-6" x="1328.06" y="1231.69" width="7" height="384.7"/><rect class="cls-6" x="1370.54" y="1231.69" width="7" height="384.7"/><rect class="cls-6" x="1409.29" y="1231.69" width="7" height="384.7"/><path class="cls-6" d="M2747.42,691.16C2661.19,691.16,2591,621,2591,534.77s70.16-156.39,156.39-156.39,156.38,70.16,156.38,156.39S2833.65,691.16,2747.42,691.16Zm0-305.78c-82.37,0-149.39,67-149.39,149.39s67,149.39,149.39,149.39,149.38-67,149.38-149.39S2829.79,385.38,2747.42,385.38Z"/><path class="cls-6" d="M1130,487.49s109.39-144.4,244.32-144.4,244.32,144.4,244.32,144.4-109.39,144.4-244.32,144.4S1130,487.49,1130,487.49Z"/><path class="cls-2" d="M1374.32,372.72a114.77,114.77,0,1,0,114.77,114.77A114.77,114.77,0,0,0,1374.32,372.72Zm0,161.44A46.68,46.68,0,1,1,1421,487.49,46.67,46.67,0,0,1,1374.32,534.16Z"/><path class="cls-6" d="M2547.12,534.77h-7c0-114.3,93-207.3,207.3-207.3v7C2637,334.47,2547.12,424.33,2547.12,534.77Z"/><path class="cls-6" d="M2500.3,534.77h-7c0-140.12,114-254.11,254.12-254.11v7C2611.16,287.66,2500.3,398.51,2500.3,534.77Z"/><path class="cls-6" d="M1261.14,1079.35h-7c0-128.87-104.85-233.73-233.73-233.73a233.74,233.74,0,0,0-233.62,226.25l-7-.22a240.75,240.75,0,0,1,240.61-233C1153.15,838.62,1261.14,946.62,1261.14,1079.35Z"/><polygon class="cls-6" points="813.43 1050.17 808.57 1045.12 783.74 1069.09 761.64 1042.57 756.26 1047.06 783.18 1079.36 813.43 1050.17"/><path class="cls-6" d="M1020.41,1335.06c-132.74,0-240.73-108-240.73-240.74h7c0,128.89,104.85,233.74,233.73,233.74A233.74,233.74,0,0,0,1254,1101.81l7,.22a240.75,240.75,0,0,1-240.61,233Z"/><polygon class="cls-6" points="1227.38 1123.51 1232.24 1128.56 1257.07 1104.59 1279.17 1131.11 1284.55 1126.62 1257.63 1094.33 1227.38 1123.51"/><polygon class="cls-2" points="3842.24 540.32 3691.15 460.8 3617.6 494.6 3617.6 582.07 3691.15 615.86 3842.24 540.32"/><rect class="cls-3" x="3546.35" y="525.21" width="116.47" height="26.55" transform="translate(4143.07 -3066.1) rotate(90)"/><rect class="cls-2" x="3509.39" y="525.21" width="137.29" height="26.55" transform="translate(4116.52 -3039.54) rotate(90)"/><path class="cls-6" d="M3691.22,619.74l-77.12-35.43v-92l77.16-35.45,158.64,83.5Zm-70.12-39.92,70,32.16,143.48-71.74L3691,464.7l-69.94,32.14Z"/><rect class="cls-6" x="3746.82" y="536.82" width="95.42" height="7"/><circle class="cls-3" cx="3730.1" cy="539.39" r="15.09"/><path class="cls-6" d="M3730.1,558a18.59,18.59,0,1,1,18.59-18.59A18.6,18.6,0,0,1,3730.1,558Zm0-30.17a11.59,11.59,0,1,0,11.59,11.58A11.59,11.59,0,0,0,3730.1,527.81Z"/><path class="cls-6" d="M3621.36,600.22h-33.55V476.76h33.55Zm-26.55-7h19.55V483.76h-19.55Z"/><path class="cls-6" d="M3594.81,610.63h-33.55V466.34h33.55Zm-26.55-7h19.55V473.34h-19.55Z"/><path class="cls-6" d="M3710.07,400.48h-26.31V374.17h26.31Zm-19.31-7h12.31V381.17h-12.31Z"/><path class="cls-6" d="M3710.07,705.22h-26.31V678.91h26.31Zm-19.31-7h12.31V685.91h-12.31Z"/><rect class="cls-6" x="3853.93" y="403.62" width="7" height="123.71"/><rect class="cls-6" x="3853.93" y="550.86" width="7" height="123.71"/><path class="cls-6" d="M3706.57,695.57v-7c81.92,0,148.57-66.65,148.57-148.57s-66.65-148.57-148.57-148.57v-7c85.78,0,155.57,69.78,155.57,155.57S3792.35,695.57,3706.57,695.57Z"/><path class="cls-6" d="M3858,405.91a14.37,14.37,0,1,1,14.36-14.36A14.38,14.38,0,0,1,3858,405.91Zm0-21.73a7.37,7.37,0,1,0,7.36,7.37A7.38,7.38,0,0,0,3858,384.18Z"/><path class="cls-6" d="M3858,698a14.36,14.36,0,1,1,14.36-14.36A14.38,14.38,0,0,1,3858,698Zm0-21.72a7.36,7.36,0,1,0,7.36,7.36A7.37,7.37,0,0,0,3858,676.26Z"/><rect class="cls-7" x="3848.38" y="529.13" width="19.31" height="19.31" transform="translate(4396.82 -3319.25) rotate(90)"/><path class="cls-6" d="M3871.19,552h-26.31V525.63h26.31Zm-19.31-7h12.31V532.63h-12.31Z"/><path class="cls-6" d="M2327.75,1416.58a3.5,3.5,0,0,1-2.48-6l385.17-385.17a3.5,3.5,0,1,1,4.95,4.94l-385.17,385.18A3.49,3.49,0,0,1,2327.75,1416.58Z"/><path class="cls-6" d="M3921,1437.18a3.49,3.49,0,0,1-2.46-1l-36.59-36.08a3.5,3.5,0,1,1,4.92-5l36.59,36.07a3.5,3.5,0,0,1,0,5A3.46,3.46,0,0,1,3921,1437.18Z"/><path class="cls-6" d="M3888.49,1469.65a3.49,3.49,0,0,1-2.47-1l-54.52-54.52a3.5,3.5,0,0,1,4.95-4.95l54.52,54.52a3.5,3.5,0,0,1-2.48,6Z"/><path class="cls-6" d="M3856,1502.13a3.48,3.48,0,0,1-2.48-1l-86.44-86.44a3.5,3.5,0,1,1,5-5l86.44,86.44a3.49,3.49,0,0,1,0,4.95A3.46,3.46,0,0,1,3856,1502.13Z"/><path class="cls-6" d="M3822.56,1533.61a3.51,3.51,0,0,1-2.48-1l-117.37-117.38a3.5,3.5,0,0,1,4.95-5L3825,1527.64a3.5,3.5,0,0,1-2.47,6Z"/><path class="cls-6" d="M3791.07,1567.07a3.49,3.49,0,0,1-2.47-1l-150.29-150.29a3.5,3.5,0,1,1,5-5l150.29,150.29a3.5,3.5,0,0,1-2.48,6Z"/><rect class="cls-2" x="1754.08" y="634.92" width="87.32" height="87.32"/><path class="cls-6" d="M1841.4,725.74h-87.32a3.5,3.5,0,0,1-3.5-3.5V634.92a3.5,3.5,0,0,1,3.5-3.5h87.32a3.5,3.5,0,0,1,3.5,3.5v87.32A3.5,3.5,0,0,1,1841.4,725.74Zm-83.82-7h80.32V638.42h-80.32Z"/><path class="cls-6" d="M3459.19,1293.06H3234v237.3h225.18Zm-218.3,230.43V1299.94h211.42v223.55Z"/><rect class="cls-6" x="3312.85" y="1244.55" width="67.52" height="6.88"/><rect class="cls-6" x="3337.1" y="1572" width="19" height="6.88"/><path class="cls-6" d="M3449.69,1220.3H3243.52a33.79,33.79,0,0,0-33.76,33.75v315.32a33.79,33.79,0,0,0,33.76,33.76h206.17a33.79,33.79,0,0,0,33.75-33.76V1254.05A33.79,33.79,0,0,0,3449.69,1220.3Zm26.88,334.32v14.75a26.91,26.91,0,0,1-26.88,26.88H3243.52a26.91,26.91,0,0,1-26.88-26.88v-14.75Zm0-278.94v272.06H3216.64V1275.68Zm0-21.63v14.76H3216.64v-14.76a26.91,26.91,0,0,1,26.88-26.88h206.17A26.91,26.91,0,0,1,3476.57,1254.05Z"/><path class="cls-6" d="M3346.6,1347.64A64.08,64.08,0,1,0,3382.16,1465l.76-.52-4.13-5.5-.69.45a57.2,57.2,0,1,1,25.7-47.75v6.07a14.76,14.76,0,0,1-29.51,0V1384h-6.87v8.76l-4.21-3.17a27.37,27.37,0,0,0-16.61-5.59,27.7,27.7,0,1,0,20.71,46l2.19-2.47,1.91,2.69a21.61,21.61,0,0,0,39.27-12.47v-6.07A64.15,64.15,0,0,0,3346.6,1347.64Zm20.82,64.07a20.82,20.82,0,1,1-20.82-20.81A20.84,20.84,0,0,1,3367.42,1411.71Z"/><rect class="cls-6" x="4153.46" y="1000.82" width="7.94" height="7.94"/><path class="cls-6" d="M4360.8,1034.49V782.12H3954.06v252.37h90.05V1078h-25.73V1086h278.09V1078h-25.72v-43.52Zm-25.73-244.43h17.79v210.76h-17.79Zm-373.07,0h17.79v210.76H3962Zm0,236.49v-17.79h173.67v-7.94H3987.73V790.06h339.4v210.76H4179.19v7.94h173.67v17.79ZM4069.84,1078h-17.79v-43.52h17.79Zm167.24,0h-159.3v-43.52h159.3Zm25.72,0H4245v-43.52h17.78Z"/><path class="cls-6" d="M2749.11,512.1a3.5,3.5,0,0,1-3.5-3.5V243.37a3.5,3.5,0,1,1,7,0V508.6A3.49,3.49,0,0,1,2749.11,512.1Z"/><path class="cls-6" d="M3564.76,542.18h-780a3.5,3.5,0,0,1,0-7h780a3.5,3.5,0,0,1,0,7Z"/><path class="cls-6" d="M2003.56,1650.34H1703.35a3.5,3.5,0,0,1-3.5-3.5V1211.28a3.5,3.5,0,0,1,3.5-3.5h300.21a3.5,3.5,0,0,1,3.5,3.5v63.53a3.5,3.5,0,0,1-7,0v-60H1706.85v428.56h293.21v-62a3.5,3.5,0,1,1,7,0v65.5A3.5,3.5,0,0,1,2003.56,1650.34Z"/><rect class="cls-3" x="1900.21" y="1409.12" width="427.54" height="170.53"/><path class="cls-6" d="M2327.75,1583.15H1900.21a3.5,3.5,0,0,1-3.5-3.5V1409.12a3.5,3.5,0,0,1,3.5-3.5h427.54a3.5,3.5,0,0,1,3.5,3.5v170.53A3.5,3.5,0,0,1,2327.75,1583.15Zm-424-7h420.54V1412.62H1903.71Z"/><rect class="cls-6" x="1900.21" y="1274.81" width="149.94" height="93.76"/><path class="cls-6" d="M2050.15,1372.07H1900.21a3.5,3.5,0,0,1-3.5-3.5v-93.76a3.5,3.5,0,0,1,3.5-3.5h149.94a3.5,3.5,0,0,1,3.5,3.5v93.76A3.5,3.5,0,0,1,2050.15,1372.07Zm-146.44-7h142.94v-86.76H1903.71Z"/><path class="cls-6" d="M2003.56,1414a3.5,3.5,0,0,1-3.5-3.5v-39.81a3.5,3.5,0,0,1,7,0v39.81A3.5,3.5,0,0,1,2003.56,1414Z"/><path class="cls-6" d="M1768.09,1301.83a29.13,29.13,0,1,1,29.13-29.13A29.16,29.16,0,0,1,1768.09,1301.83Zm0-51.25a22.13,22.13,0,1,0,22.13,22.12A22.15,22.15,0,0,0,1768.09,1250.58Z"/><path class="cls-6" d="M1938.82,1468.21a17.72,17.72,0,1,1,17.72-17.72A17.73,17.73,0,0,1,1938.82,1468.21Zm0-28.44a10.72,10.72,0,1,0,10.72,10.72A10.72,10.72,0,0,0,1938.82,1439.77Z"/><path class="cls-6" d="M1831.08,1619.88h-88.61a3.5,3.5,0,0,1,0-7h88.61a3.5,3.5,0,0,1,0,7Z"/><path class="cls-6" d="M1831.08,1600.67h-88.61a3.5,3.5,0,0,1,0-7h88.61a3.5,3.5,0,0,1,0,7Z"/><path class="cls-6" d="M1980,1484.8h-55.42a3.5,3.5,0,0,1,0-7H1980a3.5,3.5,0,0,1,0,7Z"/><path class="cls-3" d="M1934,1330.26a17.72,17.72,0,1,1,17.72-17.72A17.74,17.74,0,0,1,1934,1330.26Zm0-28.43a10.72,10.72,0,1,0,10.72,10.71A10.72,10.72,0,0,0,1934,1301.83Z"/><path class="cls-3" d="M2035.45,1308.45H1980a3.5,3.5,0,0,1,0-7h55.42a3.5,3.5,0,0,1,0,7Z"/><path class="cls-3" d="M2035.45,1325.19H1980a3.5,3.5,0,0,1,0-7h55.42a3.5,3.5,0,1,1,0,7Z"/><path class="cls-3" d="M2035.45,1341.93H1980a3.5,3.5,0,0,1,0-7h55.42a3.5,3.5,0,0,1,0,7Z"/><path class="cls-2" d="M2389.92,577.2a5.25,5.25,0,0,1,5.25-5.25h0a5.25,5.25,0,0,1,5.25,5.25h0a5.24,5.24,0,0,1-5.25,5.25h0A5.24,5.24,0,0,1,2389.92,577.2Zm-70,0a5.25,5.25,0,0,1,5.25-5.25h0a5.25,5.25,0,0,1,5.25,5.25h0a5.24,5.24,0,0,1-5.25,5.25h0A5.24,5.24,0,0,1,2319.92,577.2Zm-70,0a5.25,5.25,0,0,1,5.25-5.25h0a5.25,5.25,0,0,1,5.25,5.25h0a5.24,5.24,0,0,1-5.25,5.25h0A5.24,5.24,0,0,1,2249.92,577.2Zm-70,0a5.25,5.25,0,0,1,5.25-5.25h0a5.25,5.25,0,0,1,5.25,5.25h0a5.24,5.24,0,0,1-5.25,5.25h0A5.24,5.24,0,0,1,2179.92,577.2Zm-70,0a5.25,5.25,0,0,1,5.25-5.25h0a5.25,5.25,0,0,1,5.25,5.25h0a5.24,5.24,0,0,1-5.25,5.25h0A5.24,5.24,0,0,1,2109.92,577.2Zm-70,0a5.25,5.25,0,0,1,5.25-5.25h0a5.25,5.25,0,0,1,5.25,5.25h0a5.24,5.24,0,0,1-5.25,5.25h0A5.24,5.24,0,0,1,2039.92,577.2Zm-70,0a5.25,5.25,0,0,1,5.25-5.25h0a5.25,5.25,0,0,1,5.25,5.25h0a5.24,5.24,0,0,1-5.25,5.25h0A5.24,5.24,0,0,1,1969.92,577.2Z"/><path class="cls-3" d="M1525.38,1024.36a5.26,5.26,0,0,1,5.25-5.21h0a5.23,5.23,0,0,1,5.25,5.21h0a5.27,5.27,0,0,1-5.25,5.29h0A5.3,5.3,0,0,1,1525.38,1024.36Zm-70,0a5.27,5.27,0,0,1,5.29-5.21h0a5.22,5.22,0,0,1,5.21,5.21h0a5.26,5.26,0,0,1-5.21,5.29h0A5.31,5.31,0,0,1,1455.38,1024.36Zm-70,0a5.26,5.26,0,0,1,5.25-5.21h0a5.23,5.23,0,0,1,5.25,5.21h0a5.27,5.27,0,0,1-5.25,5.29h0A5.3,5.3,0,0,1,1385.38,1024.36Zm-70,0a5.26,5.26,0,0,1,5.25-5.21h0a5.23,5.23,0,0,1,5.25,5.21h0a5.27,5.27,0,0,1-5.25,5.29h0A5.3,5.3,0,0,1,1315.38,1024.36Zm-70,0a5.23,5.23,0,0,1,5.25-5.21h0a5.23,5.23,0,0,1,5.25,5.21h0a5.27,5.27,0,0,1-5.25,5.29h0A5.28,5.28,0,0,1,1245.38,1024.36Zm-70,0a5.26,5.26,0,0,1,5.25-5.21h0a5.23,5.23,0,0,1,5.25,5.21h0a5.27,5.27,0,0,1-5.25,5.29h0A5.3,5.3,0,0,1,1175.38,1024.36Zm-70,0a5.26,5.26,0,0,1,5.25-5.21h0a5.23,5.23,0,0,1,5.25,5.21h0a5.27,5.27,0,0,1-5.25,5.29h0A5.3,5.3,0,0,1,1105.38,1024.36Zm-70,0a5.27,5.27,0,0,1,5.29-5.21h0a5.22,5.22,0,0,1,5.21,5.21h0a5.26,5.26,0,0,1-5.21,5.29h0A5.31,5.31,0,0,1,1035.38,1024.36Z"/><path class="cls-2" d="M3710.19,1646.84a5.24,5.24,0,0,1,5.25-5.25h0a5.24,5.24,0,0,1,5.25,5.25h0a5.25,5.25,0,0,1-5.25,5.25h0A5.25,5.25,0,0,1,3710.19,1646.84Zm-70,0a5.24,5.24,0,0,1,5.25-5.25h0a5.24,5.24,0,0,1,5.25,5.25h0a5.25,5.25,0,0,1-5.25,5.25h0A5.25,5.25,0,0,1,3640.19,1646.84Zm-70,0a5.24,5.24,0,0,1,5.25-5.25h0a5.24,5.24,0,0,1,5.25,5.25h0a5.25,5.25,0,0,1-5.25,5.25h0A5.25,5.25,0,0,1,3570.19,1646.84Zm-70,0a5.24,5.24,0,0,1,5.25-5.25h0a5.24,5.24,0,0,1,5.25,5.25h0a5.25,5.25,0,0,1-5.25,5.25h0A5.25,5.25,0,0,1,3500.19,1646.84Zm-70,0a5.24,5.24,0,0,1,5.25-5.25h0a5.24,5.24,0,0,1,5.25,5.25h0a5.25,5.25,0,0,1-5.25,5.25h0A5.25,5.25,0,0,1,3430.19,1646.84Zm-70,0a5.24,5.24,0,0,1,5.25-5.25h0a5.24,5.24,0,0,1,5.25,5.25h0a5.25,5.25,0,0,1-5.25,5.25h0A5.25,5.25,0,0,1,3360.19,1646.84Zm-70,0a5.24,5.24,0,0,1,5.25-5.25h0a5.24,5.24,0,0,1,5.25,5.25h0a5.25,5.25,0,0,1-5.25,5.25h0A5.25,5.25,0,0,1,3290.19,1646.84Zm-70,0a5.24,5.24,0,0,1,5.25-5.25h0a5.24,5.24,0,0,1,5.25,5.25h0a5.25,5.25,0,0,1-5.25,5.25h0A5.25,5.25,0,0,1,3220.19,1646.84Zm-70,0a5.24,5.24,0,0,1,5.25-5.25h0a5.24,5.24,0,0,1,5.25,5.25h0a5.25,5.25,0,0,1-5.25,5.25h0A5.25,5.25,0,0,1,3150.19,1646.84Zm-70,0a5.24,5.24,0,0,1,5.25-5.25h0a5.24,5.24,0,0,1,5.25,5.25h0a5.25,5.25,0,0,1-5.25,5.25h0A5.25,5.25,0,0,1,3080.19,1646.84Zm-70,0a5.24,5.24,0,0,1,5.25-5.25h0a5.24,5.24,0,0,1,5.25,5.25h0a5.25,5.25,0,0,1-5.25,5.25h0A5.25,5.25,0,0,1,3010.19,1646.84Zm-70,0a5.24,5.24,0,0,1,5.25-5.25h0a5.24,5.24,0,0,1,5.25,5.25h0a5.25,5.25,0,0,1-5.25,5.25h0A5.25,5.25,0,0,1,2940.19,1646.84Zm-70,0a5.24,5.24,0,0,1,5.25-5.25h0a5.24,5.24,0,0,1,5.25,5.25h0a5.25,5.25,0,0,1-5.25,5.25h0A5.25,5.25,0,0,1,2870.19,1646.84Zm-70,0a5.24,5.24,0,0,1,5.25-5.25h0a5.24,5.24,0,0,1,5.25,5.25h0a5.25,5.25,0,0,1-5.25,5.25h0A5.25,5.25,0,0,1,2800.19,1646.84Zm-70,0a5.24,5.24,0,0,1,5.25-5.25h0a5.24,5.24,0,0,1,5.25,5.25h0a5.25,5.25,0,0,1-5.25,5.25h0A5.25,5.25,0,0,1,2730.19,1646.84Zm-70,0a5.24,5.24,0,0,1,5.25-5.25h0a5.24,5.24,0,0,1,5.25,5.25h0a5.25,5.25,0,0,1-5.25,5.25h0A5.25,5.25,0,0,1,2660.19,1646.84Zm-70,0a5.24,5.24,0,0,1,5.25-5.25h0a5.24,5.24,0,0,1,5.25,5.25h0a5.25,5.25,0,0,1-5.25,5.25h0A5.25,5.25,0,0,1,2590.19,1646.84Zm-70,0a5.24,5.24,0,0,1,5.25-5.25h0a5.24,5.24,0,0,1,5.25,5.25h0a5.24,5.24,0,0,1-5.25,5.25h0A5.24,5.24,0,0,1,2520.19,1646.84Zm-70,0a5.24,5.24,0,0,1,5.25-5.25h0a5.24,5.24,0,0,1,5.25,5.25h0a5.24,5.24,0,0,1-5.25,5.25h0A5.24,5.24,0,0,1,2450.19,1646.84Zm-70,0a5.24,5.24,0,0,1,5.25-5.25h0a5.24,5.24,0,0,1,5.25,5.25h0a5.24,5.24,0,0,1-5.25,5.25h0A5.24,5.24,0,0,1,2380.19,1646.84Zm-70,0a5.24,5.24,0,0,1,5.25-5.25h0a5.24,5.24,0,0,1,5.25,5.25h0a5.24,5.24,0,0,1-5.25,5.25h0A5.24,5.24,0,0,1,2310.19,1646.84Zm-70,0a5.24,5.24,0,0,1,5.25-5.25h0a5.24,5.24,0,0,1,5.25,5.25h0a5.24,5.24,0,0,1-5.25,5.25h0A5.24,5.24,0,0,1,2240.19,1646.84Zm-70,0a5.24,5.24,0,0,1,5.25-5.25h0a5.24,5.24,0,0,1,5.25,5.25h0a5.24,5.24,0,0,1-5.25,5.25h0A5.24,5.24,0,0,1,2170.19,1646.84Zm-70,0a5.24,5.24,0,0,1,5.25-5.25h0a5.24,5.24,0,0,1,5.25,5.25h0a5.24,5.24,0,0,1-5.25,5.25h0A5.24,5.24,0,0,1,2100.19,1646.84Zm-70,0a5.24,5.24,0,0,1,5.25-5.25h0a5.24,5.24,0,0,1,5.25,5.25h0a5.24,5.24,0,0,1-5.25,5.25h0A5.24,5.24,0,0,1,2030.19,1646.84Z"/><path class="cls-6" d="M3758.6,1599.55a3.44,3.44,0,0,1-2.47-1l-182.21-182.21a3.5,3.5,0,0,1,4.95-5L3758.6,1591.1l511.25-511.25a3.5,3.5,0,1,1,4.95,5l-513.73,513.72A3.44,3.44,0,0,1,3758.6,1599.55Z"/><path class="cls-6" d="M1079.64,1324.65s-.22-97.27-.22-123.5c0-10.67,10.36-11.49,19.5-12.21,13.77-1.09,28-2.22,28-26.26,0-10.88-3.26-79.19-3.29-79.88l-.17-3.54,40.1-1.5-21.17-49.12c-23.39-72.37-89.66-95.81-145-87.11-44.21,7-88.82,37.32-88.82,89.45v270.56h-7V1031c0-56.26,47.58-88.94,94.73-96.36,58.29-9.19,128.1,15.57,152.65,91.56l25.09,58.19-43.24,1.63c.68,14.36,3.13,67,3.13,76.68,0,30.51-20.74,32.15-34.47,33.24-10.73.84-13,1.77-13,5.23,0,26.23.22,123.49.22,123.49Z"/><path class="cls-2" d="M2415.75,487.5a5.24,5.24,0,0,1,5.25-5.25h0a5.26,5.26,0,0,1,5.25,5.25h0a5.27,5.27,0,0,1-5.25,5.25h0A5.25,5.25,0,0,1,2415.75,487.5Zm-70,0a5.24,5.24,0,0,1,5.25-5.25h0a5.26,5.26,0,0,1,5.25,5.25h0a5.27,5.27,0,0,1-5.25,5.25h0A5.25,5.25,0,0,1,2345.75,487.5Zm-70,0a5.24,5.24,0,0,1,5.25-5.25h0a5.26,5.26,0,0,1,5.25,5.25h0a5.27,5.27,0,0,1-5.25,5.25h0A5.25,5.25,0,0,1,2275.75,487.5Zm-70,0a5.24,5.24,0,0,1,5.25-5.25h0a5.26,5.26,0,0,1,5.25,5.25h0a5.27,5.27,0,0,1-5.25,5.25h0A5.25,5.25,0,0,1,2205.75,487.5Zm-70,0a5.24,5.24,0,0,1,5.25-5.25h0a5.26,5.26,0,0,1,5.25,5.25h0a5.27,5.27,0,0,1-5.25,5.25h0A5.25,5.25,0,0,1,2135.75,487.5Zm-70,0a5.24,5.24,0,0,1,5.25-5.25h0a5.26,5.26,0,0,1,5.25,5.25h0a5.27,5.27,0,0,1-5.25,5.25h0A5.25,5.25,0,0,1,2065.75,487.5Zm-70,0a5.24,5.24,0,0,1,5.25-5.25h0a5.26,5.26,0,0,1,5.25,5.25h0a5.27,5.27,0,0,1-5.25,5.25h0A5.25,5.25,0,0,1,1995.75,487.5Zm-70,0a5.24,5.24,0,0,1,5.25-5.25h0a5.26,5.26,0,0,1,5.25,5.25h0a5.27,5.27,0,0,1-5.25,5.25h0A5.25,5.25,0,0,1,1925.75,487.5Zm-70,0a5.24,5.24,0,0,1,5.25-5.25h0a5.26,5.26,0,0,1,5.25,5.25h0a5.27,5.27,0,0,1-5.25,5.25h0A5.25,5.25,0,0,1,1855.75,487.5Zm-70,0a5.24,5.24,0,0,1,5.25-5.25h0a5.26,5.26,0,0,1,5.25,5.25h0a5.27,5.27,0,0,1-5.25,5.25h0A5.25,5.25,0,0,1,1785.75,487.5Zm-70,0a5.24,5.24,0,0,1,5.25-5.25h0a5.26,5.26,0,0,1,5.25,5.25h0a5.27,5.27,0,0,1-5.25,5.25h0A5.25,5.25,0,0,1,1715.75,487.5Zm-70,0a5.24,5.24,0,0,1,5.25-5.25h0a5.26,5.26,0,0,1,5.25,5.25h0a5.27,5.27,0,0,1-5.25,5.25h0A5.25,5.25,0,0,1,1645.75,487.5Zm-70,0a5.24,5.24,0,0,1,5.25-5.25h0a5.26,5.26,0,0,1,5.25,5.25h0a5.27,5.27,0,0,1-5.25,5.25h0A5.25,5.25,0,0,1,1575.75,487.5Zm-70,0a5.23,5.23,0,0,1,5.21-5.25h0a5.27,5.27,0,0,1,5.29,5.25h0a5.28,5.28,0,0,1-5.29,5.25h0A5.24,5.24,0,0,1,1505.75,487.5Zm-70,0a5.24,5.24,0,0,1,5.25-5.25h0a5.24,5.24,0,0,1,5.25,5.25h0a5.24,5.24,0,0,1-5.25,5.25h0A5.25,5.25,0,0,1,1435.75,487.5Zm-70,0a5.24,5.24,0,0,1,5.25-5.25h0a5.26,5.26,0,0,1,5.25,5.25h0a5.27,5.27,0,0,1-5.25,5.25h0A5.25,5.25,0,0,1,1365.75,487.5Z"/><path class="cls-2" d="M3920.61,545.56a5.33,5.33,0,0,1-1-.1,5.06,5.06,0,0,1-1-.28,8,8,0,0,1-.92-.49,8.35,8.35,0,0,1-.8-.67,5.24,5.24,0,0,1-1.54-3.71,5.76,5.76,0,0,1,.1-1,5.11,5.11,0,0,1,.32-1,4.43,4.43,0,0,1,.49-.91,4.78,4.78,0,0,1,.63-.81,10,10,0,0,1,.8-.66,6.64,6.64,0,0,1,1.89-.77,5.15,5.15,0,0,1,2.07,0,5.29,5.29,0,0,1,1,.31,6,6,0,0,1,.91.46,5,5,0,0,1,.77.66,5.32,5.32,0,0,1,1.54,3.71,5.26,5.26,0,0,1-5.25,5.25Z"/><path class="cls-2" d="M4070.41,540.31a5.25,5.25,0,0,1,5.25-5.25h0a5.25,5.25,0,0,1,5.25,5.25h0a5.24,5.24,0,0,1-5.25,5.25h0A5.24,5.24,0,0,1,4070.41,540.31Zm-77.53,0a5.25,5.25,0,0,1,5.25-5.25h0a5.24,5.24,0,0,1,5.25,5.25h0a5.24,5.24,0,0,1-5.25,5.25h0A5.24,5.24,0,0,1,3992.88,540.31Z"/><path class="cls-2" d="M4153.18,545.56a5.23,5.23,0,0,1-1-.1,4.6,4.6,0,0,1-1-.28,7.85,7.85,0,0,1-.91-.49,6.45,6.45,0,0,1-.8-.67,5.21,5.21,0,0,1-1.55-3.71,5.28,5.28,0,0,1,1.55-3.71,4.82,4.82,0,0,1,.8-.63,3.35,3.35,0,0,1,.91-.49,4.66,4.66,0,0,1,1-.31,5.07,5.07,0,0,1,3,.31,3.85,3.85,0,0,1,.91.49,5.13,5.13,0,0,1,.78.63,5.57,5.57,0,0,1,.66.81,7.85,7.85,0,0,1,.49.91,8.7,8.7,0,0,1,.28,1,5.24,5.24,0,0,1-1.43,4.72,7.07,7.07,0,0,1-.78.67c-.31.17-.59.35-.91.49a5,5,0,0,1-1,.28A5.26,5.26,0,0,1,4153.18,545.56Z"/><path class="cls-2" d="M4147.93,621a5.25,5.25,0,0,1,5.25-5.25h0a5.24,5.24,0,0,1,5.25,5.25h0a5.24,5.24,0,0,1-5.25,5.25h0A5.24,5.24,0,0,1,4147.93,621Z"/><path class="cls-2" d="M4153.18,707a5.23,5.23,0,0,1-1-.1,4.68,4.68,0,0,1-1-.32,3.1,3.1,0,0,1-.91-.49,4,4,0,0,1-.8-.63,5.22,5.22,0,0,1,0-7.42,4.53,4.53,0,0,1,.8-.66,6.58,6.58,0,0,1,.91-.49,4.6,4.6,0,0,1,1-.28,5.1,5.1,0,0,1,2.06,0,5,5,0,0,1,1,.28,8.92,8.92,0,0,1,.91.49,4.79,4.79,0,0,1,.78.66,5.28,5.28,0,0,1,.66.77c.17.32.35.6.49.91s.21.67.28,1a5.33,5.33,0,0,1,.1,1.05,5,5,0,0,1-.1,1,9.34,9.34,0,0,1-.28,1,8.77,8.77,0,0,1-.49.91,5,5,0,0,1-.66.8,4.15,4.15,0,0,1-.78.63,3.52,3.52,0,0,1-.91.49,5.1,5.1,0,0,1-1,.32A5.26,5.26,0,0,1,4153.18,707Z"/><path class="cls-2" d="M2389.92,397.76a5.24,5.24,0,0,1,5.25-5.25h0a5.24,5.24,0,0,1,5.25,5.25h0a5.25,5.25,0,0,1-5.25,5.25h0A5.25,5.25,0,0,1,2389.92,397.76Zm-70,0a5.24,5.24,0,0,1,5.25-5.25h0a5.24,5.24,0,0,1,5.25,5.25h0a5.25,5.25,0,0,1-5.25,5.25h0A5.25,5.25,0,0,1,2319.92,397.76Zm-70,0a5.24,5.24,0,0,1,5.25-5.25h0a5.24,5.24,0,0,1,5.25,5.25h0a5.25,5.25,0,0,1-5.25,5.25h0A5.25,5.25,0,0,1,2249.92,397.76Zm-70,0a5.24,5.24,0,0,1,5.25-5.25h0a5.24,5.24,0,0,1,5.25,5.25h0a5.25,5.25,0,0,1-5.25,5.25h0A5.25,5.25,0,0,1,2179.92,397.76Zm-70,0a5.24,5.24,0,0,1,5.25-5.25h0a5.24,5.24,0,0,1,5.25,5.25h0a5.25,5.25,0,0,1-5.25,5.25h0A5.25,5.25,0,0,1,2109.92,397.76Zm-70,0a5.24,5.24,0,0,1,5.25-5.25h0a5.24,5.24,0,0,1,5.25,5.25h0a5.25,5.25,0,0,1-5.25,5.25h0A5.25,5.25,0,0,1,2039.92,397.76Zm-70,0a5.24,5.24,0,0,1,5.25-5.25h0a5.24,5.24,0,0,1,5.25,5.25h0a5.25,5.25,0,0,1-5.25,5.25h0A5.25,5.25,0,0,1,1969.92,397.76Z"/><path class="cls-6" d="M3222.23,699.26a3.43,3.43,0,0,1-1.75-.47l-134.61-77.72a3.48,3.48,0,0,1-1.75-3V462.6a3.48,3.48,0,0,1,1.75-3l134.61-77.72a3.48,3.48,0,0,1,3.5,0l134.62,77.72a3.5,3.5,0,0,1,1.75,3V618a3.5,3.5,0,0,1-1.75,3L3224,698.79A3.41,3.41,0,0,1,3222.23,699.26ZM3091.12,616l131.11,75.7L3353.35,616V464.62l-131.12-75.7-131.11,75.7Z"/><path class="cls-6" d="M3356.84,621.54a3.45,3.45,0,0,1-1.74-.47L3085.87,465.63a3.5,3.5,0,1,1,3.5-6.06L3358.6,615a3.5,3.5,0,0,1-1.76,6.53Z"/><path class="cls-6" d="M3222.23,699.26a3.5,3.5,0,0,1-3.5-3.5V540.32a3.5,3.5,0,0,1,7,0V695.76A3.5,3.5,0,0,1,3222.23,699.26Z"/><path class="cls-6" d="M3217,518a5.24,5.24,0,0,1,5.25-5.25h0a5.24,5.24,0,0,1,5.25,5.25h0a5.25,5.25,0,0,1-5.25,5.25h0A5.24,5.24,0,0,1,3217,518Zm0-28a5.24,5.24,0,0,1,5.25-5.25h0a5.24,5.24,0,0,1,5.25,5.25h0a5.25,5.25,0,0,1-5.25,5.25h0A5.24,5.24,0,0,1,3217,490Zm0-28a5.24,5.24,0,0,1,5.25-5.25h0a5.24,5.24,0,0,1,5.25,5.25h0a5.25,5.25,0,0,1-5.25,5.25h0A5.24,5.24,0,0,1,3217,462Zm0-28a5.24,5.24,0,0,1,5.25-5.25h0a5.24,5.24,0,0,1,5.25,5.25h0a5.25,5.25,0,0,1-5.25,5.25h0A5.24,5.24,0,0,1,3217,434Zm0-28a5.24,5.24,0,0,1,5.25-5.25h0a5.24,5.24,0,0,1,5.25,5.25h0a5.25,5.25,0,0,1-5.25,5.25h0A5.24,5.24,0,0,1,3217,406Z"/><path class="cls-6" d="M3222.24,543.82a3.5,3.5,0,0,1-1.76-6.53l134.62-77.72a3.5,3.5,0,1,1,3.5,6.06L3224,543.35A3.45,3.45,0,0,1,3222.24,543.82Z"/><path class="cls-6" d="M3098.6,612.94a5.3,5.3,0,0,1,1.93-7.18h0a5.28,5.28,0,0,1,7.17,1.93h0a5.22,5.22,0,0,1-1.92,7.17h0a5,5,0,0,1-2.6.7h0A5.31,5.31,0,0,1,3098.6,612.94Zm24.25-14a5.3,5.3,0,0,1,1.93-7.18h0a5.25,5.25,0,0,1,7.17,1.93h0a5.21,5.21,0,0,1-1.92,7.17h0a5,5,0,0,1-2.63.7h0A5.31,5.31,0,0,1,3122.85,598.94Zm24.26-14a5.27,5.27,0,0,1,1.93-7.18h0a5.28,5.28,0,0,1,7.17,1.93h0a5.24,5.24,0,0,1-1.92,7.17h0a5,5,0,0,1-2.63.7h0A5.25,5.25,0,0,1,3147.11,584.94Zm24.26-14a5.26,5.26,0,0,1,1.92-7.18h0a5.25,5.25,0,0,1,7.17,1.93h0a5.24,5.24,0,0,1-1.92,7.17h0a5.1,5.1,0,0,1-2.62.7h0A5.23,5.23,0,0,1,3171.37,570.94Zm24.25-14a5.25,5.25,0,0,1,1.92-7.18h0a5.31,5.31,0,0,1,7.18,1.93h0a5.28,5.28,0,0,1-1.93,7.17h0a5.18,5.18,0,0,1-2.62.7h0A5.2,5.2,0,0,1,3195.62,556.94Zm24.25-14a5.26,5.26,0,0,1,1.89-7.18h0a5.32,5.32,0,0,1,7.22,1.93h0a5.28,5.28,0,0,1-1.93,7.17h0a5.18,5.18,0,0,1-2.62.7h0A5.22,5.22,0,0,1,3219.87,542.94Z"/><path class="cls-6" d="M1040.65,1059.3a34.92,34.92,0,1,1,34.92-34.92A35,35,0,0,1,1040.65,1059.3Zm0-62.84a27.92,27.92,0,1,0,27.92,27.92A27.95,27.95,0,0,0,1040.65,996.46Z"/><rect class="cls-6" x="1369.84" y="631.89" width="7" height="449.98"/><path class="cls-6" d="M2749.11,1077.89a3.5,3.5,0,0,1-3.5-3.5V542.18h-288a3.5,3.5,0,0,1,0-7h291.51a3.49,3.49,0,0,1,3.5,3.5v535.71A3.5,3.5,0,0,1,2749.11,1077.89Z"/><rect class="cls-6" x="2613.27" y="761.32" width="7" height="168.04"/><rect class="cls-6" x="3656.4" y="896.65" width="120.92" height="7" transform="translate(1092.41 3681.8) rotate(-60.28)"/><rect class="cls-6" x="1978.91" y="760.81" width="7" height="318.55"/><rect class="cls-6" x="3049.93" y="918.07" width="332.04" height="7" transform="translate(1520.02 3805.21) rotate(-75.53)"/><path class="cls-6" d="M4154.43,817.88A75.57,75.57,0,1,0,4230,893.44,75.65,75.65,0,0,0,4154.43,817.88Zm28.63,138-2.86,1.17a68.28,68.28,0,0,1-51.54,0l-2.86-1.17V933.51a28.63,28.63,0,0,1,57.26,0Zm-49.25-78.51A20.62,20.62,0,1,1,4154.43,898,20.63,20.63,0,0,1,4133.81,877.41ZM4197.37,947l-7.45,6V933.51a35.49,35.49,0,0,0-15.66-29.41l-4.65-3.14,4-3.93a27.48,27.48,0,1,0-38.39,0l4,3.93-4.65,3.14a35.51,35.51,0,0,0-15.65,29.41V953l-7.46-6a68.71,68.71,0,1,1,85.89,0Z"/><path class="cls-2" d="M4183.06,955.92l-2.86,1.17a68.28,68.28,0,0,1-51.54,0l-2.86-1.17V933.51a28.63,28.63,0,0,1,57.26,0Z"/><circle class="cls-2" cx="4154.43" cy="877.41" r="20.61"/><path class="cls-3" d="M4197.37,947l-7.45,6V933.51a35.49,35.49,0,0,0-15.66-29.41l-4.65-3.14,4-3.93a27.48,27.48,0,1,0-38.39,0l4,3.93-4.65,3.14a35.51,35.51,0,0,0-15.65,29.41V953l-7.46-6a68.71,68.71,0,1,1,85.89,0Z"/></svg>